<svg width="18" height="20" viewBox="0 0 18 20" fill="none" xmlns="http://www.w3.org/2000/svg">
<mask id="mask0_2_1069" style="mask-type:luminance" maskUnits="userSpaceOnUse" x="0" y="0" width="18" height="20">
<path fill-rule="evenodd" clip-rule="evenodd" d="M0 0H18V20H0V0Z" fill="white"/>
</mask>
<g mask="url(#mask0_2_1069)">
<path fill-rule="evenodd" clip-rule="evenodd" d="M15.0377 10.6281C15.051 9.06917 15.9529 7.63224 17.4252 6.81927C16.4968 5.61232 14.9991 4.87036 13.3797 4.81936C11.6521 4.65937 10.0638 5.72932 9.14414 5.72932C8.22893 5.72932 6.93349 4.83936 5.49546 4.85836C3.58767 4.91736 1.85121 5.87831 0.922733 7.39025C-1.02374 10.4481 0.422021 14.9989 2.3696 17.4678C3.25497 18.6787 4.36029 20.0497 5.81932 19.9987C7.27835 19.9477 7.75364 19.1787 9.44258 19.1787C11.1348 19.1787 11.6521 19.9987 13.0902 19.9677C14.5282 19.9407 15.5473 18.7297 16.4758 17.5188C17.1323 16.6398 17.6452 15.6789 18 14.6709C16.2083 13.98 15.0422 12.39 15.0377 10.6281ZM12.2525 3.19037C13.0947 2.30841 13.5181 1.15946 13.423 -0.000488281C12.1408 0.0935076 10.9493 0.640483 10.107 1.51944C9.2913 2.37041 8.89338 3.48736 9.0017 4.60831C10.2717 4.62031 11.471 4.09333 12.2525 3.19037Z" fill="#121212"/>
</g>
</svg>
