<svg width="30" height="30" viewBox="0 0 30 30" fill="none" xmlns="http://www.w3.org/2000/svg">
<path d="M27.5 18.75V11.25C27.5 5 25 2.5 18.75 2.5H11.25C5 2.5 2.5 5 2.5 11.25V18.75C2.5 25 5 27.5 11.25 27.5H18.75C25 27.5 27.5 25 27.5 18.75Z" stroke="white" stroke-width="2" stroke-linecap="round" stroke-linejoin="round"/>
<path d="M12.025 21.6249C13.4885 21.6249 14.675 20.4385 14.675 18.9749C14.675 17.5114 13.4885 16.325 12.025 16.325C10.5614 16.325 9.375 17.5114 9.375 18.9749C9.375 20.4385 10.5614 21.6249 12.025 21.6249Z" stroke="white" stroke-width="2" stroke-linecap="round" stroke-linejoin="round"/>
<path d="M14.6748 18.975V9.71252" stroke="white" stroke-width="2" stroke-linecap="round" stroke-linejoin="round"/>
<path d="M16.4123 8.4625L19.3373 9.43746C20.0498 9.67496 20.6248 10.4749 20.6248 11.2249V11.9999C20.6248 13.0124 19.8373 13.5749 18.8873 13.2499L15.9623 12.275C15.2498 12.0375 14.6748 11.2375 14.6748 10.4875V9.7125C14.6748 8.7125 15.4498 8.1375 16.4123 8.4625Z" stroke="white" stroke-width="2" stroke-linecap="round" stroke-linejoin="round"/>
</svg>
