<svg width="31" height="31" viewBox="0 0 31 31" fill="none" xmlns="http://www.w3.org/2000/svg">
<path d="M21.6104 0.916626H9.38957C4.08124 0.916626 0.916656 4.08121 0.916656 9.38954V21.5958C0.916656 26.9187 4.08124 30.0833 9.38957 30.0833H21.5958C26.9042 30.0833 30.0687 26.9187 30.0687 21.6104V9.38954C30.0833 4.08121 26.9187 0.916626 21.6104 0.916626ZM24.25 16.5937H9.38957L13.7792 20.9833C14.2021 21.4062 14.2021 22.1062 13.7792 22.5291C13.5604 22.7479 13.2833 22.85 13.0062 22.85C12.7292 22.85 12.4521 22.7479 12.2333 22.5291L5.97707 16.2729C5.77291 16.0687 5.65624 15.7916 5.65624 15.5C5.65624 15.2083 5.77291 14.9312 5.97707 14.727L12.2333 8.47079C12.6562 8.04788 13.3562 8.04788 13.7792 8.47079C14.2021 8.89371 14.2021 9.59371 13.7792 10.0166L9.38957 14.4062H24.25C24.8479 14.4062 25.3437 14.902 25.3437 15.5C25.3437 16.0979 24.8479 16.5937 24.25 16.5937Z" fill="#121212"/>
</svg>
