<svg width="31" height="31" viewBox="0 0 31 31" fill="none" xmlns="http://www.w3.org/2000/svg">
<path d="M21.6103 0.916748H9.38942C4.08109 0.916748 0.916504 4.08133 0.916504 9.38966V21.5959C0.916504 26.9188 4.08109 30.0834 9.38942 30.0834H21.5957C26.904 30.0834 30.0686 26.9188 30.0686 21.6105V9.38966C30.0832 4.08133 26.9186 0.916748 21.6103 0.916748ZM24.2498 16.5938H9.38942L13.779 20.9834C14.2019 21.4063 14.2019 22.1063 13.779 22.5292C13.5603 22.748 13.2832 22.8501 13.0061 22.8501C12.729 22.8501 12.4519 22.748 12.2332 22.5292L5.97692 16.273C5.77275 16.0688 5.65609 15.7917 5.65609 15.5001C5.65609 15.2084 5.77275 14.9313 5.97692 14.7272L12.2332 8.47091C12.6561 8.048 13.3561 8.048 13.779 8.47091C14.2019 8.89383 14.2019 9.59383 13.779 10.0167L9.38942 14.4063H24.2498C24.8478 14.4063 25.3436 14.9022 25.3436 15.5001C25.3436 16.098 24.8478 16.5938 24.2498 16.5938Z" fill="white"/>
</svg>
