<svg width="19" height="20" viewBox="0 0 19 20" fill="none" xmlns="http://www.w3.org/2000/svg">
<mask id="mask0_106_2699" style="mask-type:luminance" maskUnits="userSpaceOnUse" x="0" y="0" width="19" height="20">
<path fill-rule="evenodd" clip-rule="evenodd" d="M0.5 0H18.5V20H0.5V0Z" fill="white"/>
</mask>
<g mask="url(#mask0_106_2699)">
<path fill-rule="evenodd" clip-rule="evenodd" d="M15.5377 10.6281C15.551 9.06917 16.4529 7.63224 17.9252 6.81927C16.9968 5.61232 15.4991 4.87036 13.8797 4.81936C12.1521 4.65937 10.5638 5.72932 9.64414 5.72932C8.72893 5.72932 7.43349 4.83936 5.99546 4.85836C4.08767 4.91736 2.35121 5.87831 1.42273 7.39025C-0.523744 10.4481 0.922021 14.9989 2.8696 17.4678C3.75497 18.6787 4.86029 20.0497 6.31932 19.9987C7.77835 19.9477 8.25364 19.1787 9.94258 19.1787C11.6348 19.1787 12.1521 19.9987 13.5902 19.9677C15.0282 19.9407 16.0473 18.7297 16.9758 17.5188C17.6323 16.6398 18.1452 15.6789 18.5 14.6709C16.7083 13.98 15.5422 12.39 15.5377 10.6281ZM12.7525 3.19037C13.5947 2.30841 14.0181 1.15946 13.923 -0.000488281C12.6408 0.0935076 11.4493 0.640483 10.607 1.51944C9.7913 2.37041 9.39338 3.48736 9.5017 4.60831C10.7717 4.62031 11.971 4.09333 12.7525 3.19037Z" fill="white"/>
</g>
</svg>
