<svg width="21" height="20" viewBox="0 0 21 20" fill="none" xmlns="http://www.w3.org/2000/svg">
<mask id="mask0_2_1057" style="mask-type:luminance" maskUnits="userSpaceOnUse" x="0" y="5" width="5" height="10">
<path fill-rule="evenodd" clip-rule="evenodd" d="M0.499901 5.40112H4.93228V14.7389H0.499901V5.40112Z" fill="white"/>
</mask>
<g mask="url(#mask0_2_1057)">
<path fill-rule="evenodd" clip-rule="evenodd" d="M4.93228 12.0861L4.23614 14.6851L1.69161 14.7389C0.93126 13.3285 0.499893 11.7147 0.499893 9.99995C0.499893 8.34179 0.903174 6.77792 1.61806 5.40112H1.61853L3.88384 5.81628L4.87626 8.06804C4.6686 8.67366 4.55536 9.32354 4.55536 9.99995C4.55536 10.7341 4.68845 11.4373 4.93228 12.0861Z" fill="#D81159"/>
</g>
<mask id="mask1_2_1057" style="mask-type:luminance" maskUnits="userSpaceOnUse" x="10" y="8" width="11" height="10">
<path fill-rule="evenodd" clip-rule="evenodd" d="M10.7198 8.13184H20.4999V17.7983H10.7198V8.13184Z" fill="white"/>
</mask>
<g mask="url(#mask1_2_1057)">
<path fill-rule="evenodd" clip-rule="evenodd" d="M20.3252 8.13184C20.4401 8.73668 20.4999 9.36152 20.4999 9.99996C20.4999 10.7159 20.4247 11.4143 20.2813 12.0878C19.7945 14.3802 18.5226 16.3818 16.7605 17.7983L16.7599 17.7978L13.9066 17.6523L13.5027 15.1313C14.672 14.4456 15.5857 13.3725 16.0671 12.0878H10.7198V8.13184H20.3252Z" fill="#518EF8"/>
</g>
<path fill-rule="evenodd" clip-rule="evenodd" d="M16.7597 17.7978L16.7602 17.7983C15.0465 19.1758 12.8695 20 10.4998 20C6.69151 20 3.38049 17.8714 1.69151 14.739L4.93217 12.0863C5.77674 14.34 7.9508 15.9445 10.4998 15.9445C11.5954 15.9445 12.6218 15.6483 13.5026 15.1313L16.7597 17.7978Z" fill="#28B446"/>
<path fill-rule="evenodd" clip-rule="evenodd" d="M16.8828 2.30227L13.6433 4.95437C12.7318 4.38461 11.6542 4.05547 10.4999 4.05547C7.89326 4.05547 5.67838 5.73348 4.87627 8.06809L1.61853 5.40117H1.61806C3.28232 2.19223 6.63502 0 10.4999 0C12.9262 0 15.1509 0.864258 16.8828 2.30227Z" fill="#F14336"/>
</svg>
