<svg width="50" height="50" viewBox="0 0 50 50" fill="none" xmlns="http://www.w3.org/2000/svg">
<path d="M24.9375 4.16667C13.4375 4.16667 4.10416 13.5 4.10416 25C4.10416 36.5 13.4375 45.8333 24.9375 45.8333C36.4375 45.8333 45.7708 36.5 45.7708 25C45.7708 13.5 36.4583 4.16667 24.9375 4.16667ZM22.3333 31.3125C22.3333 32.3125 21.9167 32.7083 20.8542 32.7083H18.1458C17.0833 32.7083 16.6667 32.3125 16.6667 31.3125V18.6875C16.6667 17.6875 17.0833 17.2917 18.1458 17.2917H20.8333C21.8958 17.2917 22.3125 17.6875 22.3125 18.6875V31.3125H22.3333ZM33.3333 31.3125C33.3333 32.3125 32.9167 32.7083 31.8542 32.7083H29.1667C28.1042 32.7083 27.6875 32.3125 27.6875 31.3125V18.6875C27.6875 17.6875 28.1042 17.2917 29.1667 17.2917H31.8542C32.9167 17.2917 33.3333 17.6875 33.3333 18.6875V31.3125Z" fill="white"/>
<path d="M24.9375 4.16667C13.4375 4.16667 4.10416 13.5 4.10416 25C4.10416 36.5 13.4375 45.8333 24.9375 45.8333C36.4375 45.8333 45.7708 36.5 45.7708 25C45.7708 13.5 36.4583 4.16667 24.9375 4.16667ZM22.3333 31.3125C22.3333 32.3125 21.9167 32.7083 20.8542 32.7083H18.1458C17.0833 32.7083 16.6667 32.3125 16.6667 31.3125V18.6875C16.6667 17.6875 17.0833 17.2917 18.1458 17.2917H20.8333C21.8958 17.2917 22.3125 17.6875 22.3125 18.6875V31.3125H22.3333ZM33.3333 31.3125C33.3333 32.3125 32.9167 32.7083 31.8542 32.7083H29.1667C28.1042 32.7083 27.6875 32.3125 27.6875 31.3125V18.6875C27.6875 17.6875 28.1042 17.2917 29.1667 17.2917H31.8542C32.9167 17.2917 33.3333 17.6875 33.3333 18.6875V31.3125Z" fill="#D81159"/>
</svg>
