<svg width="50" height="50" viewBox="0 0 50 50" fill="none" xmlns="http://www.w3.org/2000/svg">
<path d="M24.9373 4.16663C13.4373 4.16663 4.104 13.5 4.104 25C4.104 36.5 13.4373 45.8333 24.9373 45.8333C36.4373 45.8333 45.7707 36.5 45.7707 25C45.7707 13.5 36.4582 4.16663 24.9373 4.16663ZM31.1873 29.6458L25.1457 33.125C24.3957 33.5625 23.5623 33.7708 22.7498 33.7708C21.9165 33.7708 21.104 33.5625 20.354 33.125C18.854 32.25 17.9582 30.7083 17.9582 28.9583V21.9791C17.9582 20.25 18.854 18.6875 20.354 17.8125C21.854 16.9375 23.6457 16.9375 25.1665 17.8125L31.2082 21.2916C32.7082 22.1666 33.604 23.7083 33.604 25.4583C33.604 27.2083 32.7082 28.7708 31.1873 29.6458Z" fill="#D81159"/>
</svg>
