<svg width="31" height="31" viewBox="0 0 31 31" fill="none" xmlns="http://www.w3.org/2000/svg">
<path d="M15.4561 0.916748C7.40614 0.916748 0.872803 7.45008 0.872803 15.5001C0.872803 23.5501 7.40614 30.0834 15.4561 30.0834C23.5061 30.0834 30.0395 23.5501 30.0395 15.5001C30.0395 7.45008 23.5207 0.916748 15.4561 0.916748ZM19.8311 18.7522L15.602 21.1876C15.077 21.4938 14.4936 21.6397 13.9249 21.6397C13.3416 21.6397 12.7728 21.4938 12.2478 21.1876C11.1978 20.5751 10.5707 19.4959 10.5707 18.2709V13.3855C10.5707 12.1751 11.1978 11.0813 12.2478 10.4688C13.2978 9.85633 14.552 9.85633 15.6166 10.4688L19.8457 12.9042C20.8957 13.5167 21.5228 14.5959 21.5228 15.8209C21.5228 17.0459 20.8957 18.1397 19.8311 18.7522Z" fill="#D81159"/>
</svg>
