<svg width="31" height="31" viewBox="0 0 31 31" fill="none" xmlns="http://www.w3.org/2000/svg">
<path d="M21.6103 0.916626H9.38942C4.08109 0.916626 0.916504 4.08121 0.916504 9.38954V21.5958C0.916504 26.9187 4.08109 30.0833 9.38942 30.0833H21.5957C26.904 30.0833 30.0686 26.9187 30.0686 21.6104V9.38954C30.0832 4.08121 26.9186 0.916626 21.6103 0.916626ZM21.4207 14.2895L16.2728 19.4375C16.054 19.6562 15.7769 19.7583 15.4998 19.7583C15.2228 19.7583 14.9457 19.6562 14.7269 19.4375L9.579 14.2895C9.15609 13.8666 9.15609 13.1666 9.579 12.7437C10.0019 12.3208 10.7019 12.3208 11.1248 12.7437L15.4998 17.1187L19.8748 12.7437C20.2978 12.3208 20.9978 12.3208 21.4207 12.7437C21.8436 13.1666 21.8436 13.852 21.4207 14.2895Z" fill="white"/>
</svg>
