<svg width="130" height="130" viewBox="0 0 130 130" fill="none" xmlns="http://www.w3.org/2000/svg">
<circle cx="65" cy="65" r="65" fill="#D81159" fill-opacity="0.2"/>
<circle cx="65" cy="65" r="45" fill="#D81159"/>
<path d="M65 48.3333C55.8167 48.3333 48.3334 55.8166 48.3334 64.9999C48.3334 74.1833 55.8167 81.6666 65 81.6666C74.1834 81.6666 81.6667 74.1833 81.6667 64.9999C81.6667 55.8166 74.1834 48.3333 65 48.3333ZM72.9667 61.1666L63.5167 70.6166C63.2834 70.8499 62.9667 70.9833 62.6334 70.9833C62.3 70.9833 61.9834 70.8499 61.75 70.6166L57.0334 65.8999C56.55 65.4166 56.55 64.6166 57.0334 64.1333C57.5167 63.6499 58.3167 63.6499 58.8 64.1333L62.6334 67.9666L71.2 59.3999C71.6834 58.9166 72.4834 58.9166 72.9667 59.3999C73.45 59.8833 73.45 60.6666 72.9667 61.1666Z" fill="white"/>
</svg>
