<svg width="130" height="130" viewBox="0 0 130 130" fill="none" xmlns="http://www.w3.org/2000/svg">
<circle cx="65" cy="65" r="65" fill="#D81159" fill-opacity="0.2"/>
<circle cx="65" cy="65" r="45" fill="#D81159"/>
<path d="M77.5 58.3333C79.8012 58.3333 81.6666 56.4679 81.6666 54.1667C81.6666 51.8655 79.8012 50 77.5 50C75.1988 50 73.3333 51.8655 73.3333 54.1667C73.3333 56.4679 75.1988 58.3333 77.5 58.3333Z" fill="white"/>
<path d="M77.5 58.3333C79.8012 58.3333 81.6666 56.4679 81.6666 54.1667C81.6666 51.8655 79.8012 50 77.5 50C75.1988 50 73.3333 51.8655 73.3333 54.1667C73.3333 56.4679 75.1988 58.3333 77.5 58.3333Z" fill="white"/>
<path d="M79.5333 60.5167C78.3666 60.8834 77.0833 60.95 75.75 60.6167C73.5166 60.0334 71.7 58.25 71.0833 56.0167C70.7833 54.9334 70.7666 53.8667 70.95 52.9C71.1666 51.8334 70.4166 50.8334 69.35 50.8334H56.6666C51.6666 50.8334 48.3333 53.3334 48.3333 59.1667V70.8334C48.3333 76.6667 51.6666 79.1667 56.6666 79.1667H73.3333C78.3333 79.1667 81.6666 76.6667 81.6666 70.8334V62.1C81.6666 61 80.6 60.1667 79.5333 60.5167ZM70.8666 63.5834L68.9 65.15C67.8 66.0334 66.4 66.4667 65 66.4667C63.6 66.4667 62.1833 66.0334 61.1 65.15L55.8833 60.9834C55.35 60.55 55.2666 59.75 55.6833 59.2167C56.1166 58.6834 56.9 58.5834 57.4333 59.0167L62.65 63.1834C63.9166 64.2 66.0666 64.2 67.3333 63.1834L69.3 61.6167C69.8333 61.1834 70.6333 61.2667 71.05 61.8167C71.4833 62.35 71.4 63.15 70.8666 63.5834Z" fill="white"/>
</svg>
